<?xml version="1.0" encoding="UTF-8" standalone="no"?>
<!-- Created with Inkscape (http://www.inkscape.org/) -->

<svg
   width="83.478806mm"
   height="83.66597mm"
   viewBox="0 0 83.478806 83.66597"
   version="1.1"
   id="svg1"
   xml:space="preserve"
   xmlns="http://www.w3.org/2000/svg"
   xmlns:svg="http://www.w3.org/2000/svg"><defs
     id="defs1" /><g
     id="layer3"
     transform="translate(-54.146284,-138.36113)"><ellipse
       style="fill:#ffd053;fill-opacity:1;stroke-width:0.380598"
       id="path2-1"
       ry="41.832985"
       rx="41.739403"
       cy="180.19411"
       cx="95.885689" /><g
       id="g15"><path
         d="m 360.53715,-48.131804 -107,-159.999996 -35.59558,-39.49999 c -14.58527,-16.18509 -61.76569,-19.58756 -77.43236,-35.25423 -15.66666,-15.66667 -22.79974,-34.51077 -23.49999,-56.5 l -15.50624,-486.92625 c -0.70025,-21.98923 7.83333,-40.83333 23.49999,-56.5 15.66667,-15.66667 34.59273,-25.48279 56.5,-23.5 l 642.81932,58.18047 c 21.90728,1.98279 40.83333,7.83333 56.5,23.5 15.66667,15.66667 26.43901,34.6904 23.5,56.5 l -54.97667,407.96704 c -2.93901,21.8096 -7.83333,40.83333 -23.5,56.5 -15.66667,15.66667 -35.12152,18.39757 -56.5,23.5 l -301.80847,72.03296 z"
         id="path1-7"
         style="fill:#370e0e;fill-opacity:1"
         transform="matrix(0.06915662,0,0,0.06884463,63.329995,215.49107)" /></g></g></svg>
